<svg xmlns="http://www.w3.org/2000/svg" viewBox="0 0 24 24" aria-hidden="true">
  <path fill="#34A853" d="M12 2C8.13 2 5 5.13 5 9c0 4.97 5.34 11.74 6.14 12.73a1.1 1.1 0 0 0 1.72 0C13.66 20.74 19 13.97 19 9c0-3.87-3.13-7-7-7z"/>
  <circle cx="12" cy="9" r="4.2" fill="#fff"/>
  <path fill="#4285F4" d="M12 4.8A4.2 4.2 0 0 0 7.8 9h2.35A1.85 1.85 0 0 1 12 7.15V4.8z"/>
  <path fill="#EA4335" d="M12 4.8v2.35A1.85 1.85 0 0 1 13.85 9h2.35A4.2 4.2 0 0 0 12 4.8z"/>
  <path fill="#FBBC05" d="M16.2 9h-2.35A1.85 1.85 0 0 1 12 10.85v2.35A4.2 4.2 0 0 0 16.2 9z"/>
  <path fill="#34A853" d="M12 13.2v-2.35A1.85 1.85 0 0 1 10.15 9H7.8A4.2 4.2 0 0 0 12 13.2z"/>
</svg>
